<?xml version="1.0" standalone="no"?>
<!DOCTYPE svg PUBLIC "-//W3C//DTD SVG 20010904//EN"
 "http://www.w3.org/TR/2001/REC-SVG-20010904/DTD/svg10.dtd">
<svg version="1.0" xmlns="http://www.w3.org/2000/svg"
 width="232.000000pt" height="230.000000pt" viewBox="0 0 232.000000 230.000000"
 preserveAspectRatio="xMidYMid meet">
<metadata>
Created by potrace 1.16, written by Peter Selinger 2001-2019
</metadata>
<g transform="translate(0.000000,230.000000) scale(0.100000,-0.100000)"
fill="#000000" stroke="none">
<path d="M988 2195 c-163 -26 -367 -110 -456 -187 -18 -15 -44 -30 -57 -33
-14 -3 -36 -7 -49 -10 -17 -3 -31 -19 -46 -52 -12 -27 -24 -53 -28 -59 -4 -6
-37 -55 -73 -110 -104 -156 -156 -284 -184 -454 -54 -320 74 -670 339 -933
121 -120 235 -191 391 -244 l110 -37 205 1 c176 0 215 3 275 20 79 23 230 80
260 98 112 68 163 108 232 183 127 138 133 144 133 156 0 6 16 33 35 60 71
101 127 272 145 450 22 213 -33 473 -138 651 -33 57 -66 110 -71 115 -21 18
-71 104 -71 120 0 22 -28 40 -63 40 -13 0 -43 14 -65 30 -23 17 -44 30 -48 30
-3 0 -20 11 -37 24 -41 31 -145 77 -217 97 -190 51 -381 67 -522 44z m353 -61
c186 -34 314 -85 422 -166 31 -24 77 -49 102 -56 46 -12 61 -32 25 -32 -39 0
-152 -63 -210 -117 -70 -64 -133 -157 -156 -228 -25 -76 -34 -79 -112 -40 -37
18 -83 36 -102 40 -27 4 -15 -5 50 -39 131 -70 228 -187 244 -297 4 -26 2 -77
-4 -114 -11 -67 -58 -186 -79 -199 -6 -4 -17 -22 -25 -39 -30 -73 -248 -309
-313 -339 -18 -9 -28 -6 -55 14 -49 38 -228 228 -228 242 0 4 -13 21 -30 39
-16 18 -47 69 -67 115 -39 86 -58 108 -41 45 17 -61 87 -193 137 -258 71 -92
191 -207 244 -233 44 -22 48 -22 81 -7 18 9 83 65 142 124 86 85 122 131 171
213 93 157 108 202 108 328 0 117 -10 145 -86 247 -21 29 -35 54 -30 58 5 3
21 35 35 73 30 78 90 160 163 225 63 55 125 84 189 89 42 3 49 0 52 -17 3 -11
19 -38 37 -60 91 -112 174 -328 194 -503 9 -85 0 -269 -15 -293 -3 -6 -8 -29
-11 -52 -2 -23 -8 -46 -12 -52 -5 -5 -16 -33 -25 -62 -10 -28 -23 -57 -31 -63
-8 -6 -11 -18 -8 -26 3 -8 1 -14 -4 -14 -6 0 -18 -18 -28 -40 -10 -22 -21 -37
-25 -35 -7 4 -35 -49 -35 -67 0 -3 -4 -10 -9 -15 -6 -5 -6 -2 -1 7 8 13 6 13
-7 2 -9 -8 -15 -19 -12 -27 3 -7 -3 -16 -15 -20 -12 -3 -19 -10 -16 -15 6 -9
-43 -60 -57 -60 -5 0 -8 -5 -8 -11 0 -11 -25 -39 -35 -39 -4 0 -25 -19 -48
-42 l-42 -42 -7 54 c-3 30 -6 102 -7 160 -1 82 -5 113 -20 140 -21 41 -62 73
-85 68 -13 -2 -9 -10 17 -38 l32 -34 0 -163 c0 -139 -2 -165 -17 -179 -14 -14
-20 -15 -32 -4 -13 10 -16 39 -16 161 0 141 -1 149 -21 160 -31 16 -82 5 -112
-25 -28 -28 -59 -38 -38 -12 9 10 9 16 1 21 -11 7 -59 -33 -60 -48 0 -5 -16
-25 -35 -45 -30 -31 -35 -42 -29 -67 3 -16 6 -38 6 -48 -1 -9 3 -15 9 -12 5 4
9 1 9 -4 0 -6 -4 -11 -9 -11 -15 0 -33 28 -26 40 4 6 4 18 0 28 -5 14 -7 14
-15 2 -15 -23 -12 -77 5 -94 51 -50 97 -25 153 84 49 97 76 128 112 132 l25 3
3 -140 c1 -77 5 -147 9 -155 14 -32 10 -46 -14 -48 -14 -1 -32 -7 -41 -12 -14
-9 -12 -10 7 -4 16 4 21 3 17 -5 -4 -6 -15 -11 -24 -11 -9 0 -30 -7 -46 -15
-36 -19 -124 -41 -196 -50 -30 -4 -69 -12 -87 -18 -61 -21 -285 18 -431 75
-47 18 -168 90 -182 107 -3 3 -17 12 -31 19 -42 22 -145 119 -210 198 -142
174 -215 372 -226 609 -7 155 9 251 64 390 33 84 119 236 167 296 12 15 26 34
31 43 9 15 15 15 73 -3 34 -11 82 -31 106 -45 51 -30 168 -140 186 -174 20
-41 23 -16 2 30 -24 56 -122 161 -180 195 -25 15 -68 34 -96 43 -53 18 -73 40
-36 40 46 0 195 -100 258 -173 41 -47 74 -99 104 -164 32 -71 36 -98 12 -89
-12 5 -15 0 -12 -21 4 -35 20 -39 53 -11 l27 24 -54 115 c-68 143 -142 228
-248 283 -38 21 -70 40 -70 44 2 14 100 87 161 119 190 98 442 136 650 97z"/>
<path d="M804 1198 c-45 -21 -57 -96 -27 -170 19 -49 47 -78 75 -78 17 0 16 5
-11 37 -24 29 -31 47 -31 81 0 62 14 82 55 82 60 0 95 -61 75 -132 -6 -18 -20
-41 -32 -50 -13 -9 -20 -19 -17 -23 4 -3 20 6 37 20 44 37 48 125 10 202 -18
37 -89 53 -134 31z"/>
<path d="M1423 1196 c-42 -19 -62 -52 -70 -114 -4 -41 -2 -57 16 -85 24 -39
41 -49 61 -37 10 6 9 13 -4 31 -9 14 -16 43 -16 70 0 39 5 51 26 68 46 37 114
24 114 -22 0 -10 4 -16 9 -13 11 7 -5 76 -22 93 -20 19 -79 24 -114 9z"/>
<path d="M705 678 c-47 -37 -55 -72 -55 -243 0 -186 9 -214 71 -215 14 0 34
10 45 21 16 18 19 38 19 143 1 150 2 156 19 156 20 0 93 -85 121 -140 37 -72
71 -97 126 -92 9 1 21 14 28 28 10 23 8 34 -14 78 -34 68 -186 251 -224 271
-44 22 -103 19 -136 -7z m160 -72 c92 -94 175 -198 175 -218 0 -53 -66 -30
-93 31 -29 66 -107 162 -142 177 -70 29 -80 6 -70 -166 6 -110 4 -129 -9 -143
-20 -20 -43 -13 -52 15 -3 12 -7 71 -9 132 -2 111 11 187 36 210 9 8 10 7 6
-7 -4 -11 -3 -16 4 -12 5 4 7 15 4 26 -5 14 0 22 17 28 41 17 50 12 133 -73z"/>
<path d="M2267 842 c-27 -105 -118 -293 -182 -376 -57 -75 -147 -166 -219
-221 -22 -16 -44 -35 -50 -40 -23 -22 -115 -76 -196 -115 -47 -22 -74 -38 -60
-34 61 15 212 96 287 153 159 120 263 244 348 416 50 102 101 253 93 276 -2 5
-11 -21 -21 -59z"/>
<path d="M75 738 c15 -56 100 -213 153 -285 77 -103 221 -237 319 -296 92 -55
222 -113 273 -121 32 -5 31 -4 -8 9 -130 43 -340 171 -453 276 -27 25 -104
118 -129 155 -65 96 -90 139 -120 207 -33 76 -47 98 -35 55z"/>
</g>
</svg>
